# xmcd
#
# Track frame offsets:
#	180
#	11625
#	23913
#	33728
#	45091
#	53738
#	62119
#	72074
#	81237
#	90353
#	101229
#	110992
#	120723
#	130214
#	141429
#	151103
#	161708
#	172621
#	184796
#	196355
#	209068
#	219041
#	229609
#	239014
#	250523
#	263065
#	273367
#	284362
#
# Disc length: 3962 seconds
#
# Revision: 0
# Processed by: cddbd v1.5.1PL0 Copyright (c) Steve Scherf et al.
# Submitted via: audiograbber 1.83.01
#
DISCID=8b0f781c
DTITLE=Sonny James - The Sonny side of rock and roll
DYEAR=1900
DGENRE=Rock
TTITLE0=Young love
TTITLE1=A fool such as I
TTITLE2=Uh huh mm
TTITLE3=Let's play love
TTITLE4=For rent
TTITLE5=Pure love
TTITLE6=Yo yo
TTITLE7=A might loveable man
TTITLE8=You've got that touch
TTITLE9=Kathaleen
TTITLE10=Are you mine
TTITLE11=Near you
TTITLE12=Beg your pardon
TTITLE13=First date, firdt kiss, first love
TTITLE14=Talk of the school
TTITLE15=Walk to the dance
TTITLE16=Lovesick blues
TTITLE17=Heartaches
TTITLE18=Jenny Lou
TTITLE19=Apache
TTITLE20=Innocent angel
TTITLE21=Dance her by me
TTITLE22=Listen to my heart
TTITLE23=The minute you're gone
TTITLE24=Are you lonesome tonight
TTITLE25=Bad days a'comin'
TTITLE26=I'll never find another you
TTITLE27=Running bear
EXTD=
EXTT0=
EXTT1=
EXTT2=
EXTT3=
EXTT4=
EXTT5=
EXTT6=
EXTT7=
EXTT8=
EXTT9=
EXTT10=
EXTT11=
EXTT12=
EXTT13=
EXTT14=
EXTT15=
EXTT16=
EXTT17=
EXTT18=
EXTT19=
EXTT20=
EXTT21=
EXTT22=
EXTT23=
EXTT24=
EXTT25=
EXTT26=
EXTT27=
PLAYORDER=
